{"title":"R. Kelly Ft. Celine Dion - I'm Your Angel (h.264/mp4/etvnetwork","uid":6990575,"size":130547690,"categoryP":"video","categoryS":"music_videos","magnet":"?xt=urn:btih:98c8c29f5846165cf1285330f3f8957f7a5e0548&amp;dn=R.+Kelly+Ft.+Celine+Dion+-+I%5C%27m+Your+Angel+%28h.264%2Fmp4%2Fetvnetwork&amp;tr=udp%3A%2F%2Ftracker.openbittorrent.com%3A80&amp;tr=udp%3A%2F%2Fopen.demonii.com%3A1337&amp;tr=udp%3A%2F%2Ftracker.coppersurfer.tk%3A6969&amp;tr=udp%3A%2F%2Fexodus.desync.com%3A6969","seeders":1,"leechers":0,"uploader":"MusicVideos-HQ","files":1,"time":1327688124,"description":"General\n\nFormat                           : MPEG-4\nFormat profile                   : Base Media\nCodec ID                         : isom\nFile size                        : 124 MiB\nDuration                         : 5mn 27s\nOverall bit rate                 : 3 192 Kbps\nEncoded date                     : UTC 2012-01-22 19:52:28\nTagged date                      : UTC 2012-01-22 19:52:28\n\nVideo\nID                               : 1\nFormat                           : AVC\nFormat/Info                      : Advanced Video Codec\nFormat profile                   : &lt;a class=&quot;__cf_email__&quot; href=&quot;/cdn-cgi/l/email-protection&quot; data-cfemail=&quot;327a5b555a727e011c02&quot;&gt;[email&amp;#160;protected]&lt;/a&gt;&lt;script cf-hash='f9e31' type=&quot;text/javascript&quot;&gt;\n/* &lt;![CDATA[ */!function(){try{var t=&quot;currentScript&quot;in document?document.currentScript:function(){for(var t=document.getElementsByTagName(&quot;script&quot;),e=t.length;e--;)if(t[e].getAttribute(&quot;cf-hash&quot;))return t[e]}();if(t&amp;&amp;t.previousSibling){var e,r,n,i,c=t.previousSibling,a=c.getAttribute(&quot;data-cfemail&quot;);if(a){for(e=&quot;&quot;,r=parseInt(a.substr(0,2),16),n=2;a.length-n;n+=2)i=parseInt(a.substr(n,2),16)^r,e+=String.fromCharCode(i);e=document.createTextNode(e),c.parentNode.replaceChild(e,c)}}}catch(u){}}();/* ]]&gt; */&lt;/script&gt;\nFormat settings, CABAC           : Yes\nFormat settings, ReFrames        : 2 frames\nCodec ID                         : avc1\nCodec ID/Info                    : Advanced Video Coding\nDuration                         : 5mn 27s\nBit rate mode                    : Variable\nBit rate                         : 3 117 Kbps\nMaximum bit rate                 : 5 171 Kbps\nWidth                            : 720 pixels\nHeight                           : 480 pixels\nDisplay aspect ratio             : 4:3\nOriginal display aspect ratio    : 4:3\nFrame rate mode                  : Constant\nFrame rate                       : 29.970 fps\nStandard                         : NTSC\nColor space                      : YUV\nChroma subsampling               : 4:2:0\nBit depth                        : 8 bits\nScan type                        : Progressive\nBits/(Pixel*Frame)               : 0.301\nStream size                      : 121 MiB (98%)\n\n\nAudio\nID                               : 2\nFormat                           : AAC\nFormat/Info                      : Advanced Audio Codec\nFormat profile                   : LC\nCodec ID                         : 40\nDuration                         : 5mn 27s\nBit rate mode                    : Variable\nBit rate                         : 69.4 Kbps\nMaximum bit rate                 : 77.7 Kbps\nChannel(s)                       : 2 channels\nChannel positions                : Front: L R\nSampling rate                    : 48.0 KHz\nCompression mode                 : Lossy\nStream size                      : 2.71 MiB (2%)\n\n","torrent":{"xt":"urn:btih:98c8c29f5846165cf1285330f3f8957f7a5e0548","amp;dn":"R.+Kelly+Ft.+Celine+Dion+-+I%5C%27m+Your+Angel+%28h.264%2Fmp4%2Fetvnetwork","amp;tr":["udp%3A%2F%2Ftracker.openbittorrent.com%3A80","udp%3A%2F%2Fopen.demonii.com%3A1337","udp%3A%2F%2Ftracker.coppersurfer.tk%3A6969","udp%3A%2F%2Fexodus.desync.com%3A6969"],"infoHash":"98c8c29f5846165cf1285330f3f8957f7a5e0548","infoHashBuffer":{"type":"Buffer","data":[152,200,194,159,88,70,22,92,241,40,83,48,243,248,149,127,122,94,5,72]},"announce":[],"urlList":[]}}